# xmcd CD database file
#
# Track frame offsets:
#	182
#	18420
#	31700
#	53545
#	72570
#	89210
#	106242
#	129380
#	146017
#	159097
#	182582
#	197810
#	210670
#	224710
#	241507
#	258030
#	269712
#	285277
#	300640
#	314357
#
# Disc length: 4409 seconds
#
# Revision: 2
# Processed by: cddbd v1.4b41PL1 Copyright (c) Steve Scherf et al.
# Submitted via: Feurio! 1.60 - http://www.feurio.com
#
DISCID=1c113714,29113714
DTITLE=Status Quo - Never Too Late and Back To Back
DYEAR=1900
DGENRE=
TTITLE0=Never Too Late
TTITLE1=Something 'Bout You Baby I Like
TTITLE2=Take Me Away
TTITLE3=Falling In Falling Out
TTITLE4=Carol
TTITLE5=Long Ago
TTITLE6=Mountain Lady
TTITLE7=Don't Stop Me Now
TTITLE8=Enough Is Enough
TTITLE9=Riverside
TTITLE10=A Mess Of Blues
TTITLE11=Ol' Rag Blues
TTITLE12=Can't Be Done
TTITLE13=Too Close To The Ground
TTITLE14=No Contract
TTITLE15=Win Or Lose
TTITLE16=Marguerita Time
TTITLE17=Your Kind Of Love
TTITLE18=Stay The Night
TTITLE19=Going Down Town Tonight
EXTD=
EXTT0=
EXTT1=
EXTT2=
EXTT3=
EXTT4=
EXTT5=
EXTT6=
EXTT7=
EXTT8=
EXTT9=
EXTT10=
EXTT11=
EXTT12=
EXTT13=
EXTT14=
EXTT15=
EXTT16=
EXTT17=
EXTT18=
EXTT19=
PLAYORDER=
